<mxfile host="app.diagrams.net" modified="2023-07-25T18:17:06.656Z" agent="Mozilla/5.0 (Windows NT 10.0; Win64; x64) AppleWebKit/537.36 (KHTML, like Gecko) Chrome/114.0.0.0 Safari/537.36" etag="UPuZLk9iwSk6CegADqb9" version="21.6.5" type="device">
  <diagram name="Página-1" id="d_aTkb7hWJcKHGA7Y2TJ">
    <mxGraphModel dx="1434" dy="796" grid="1" gridSize="10" guides="1" tooltips="1" connect="1" arrows="1" fold="1" page="1" pageScale="1" pageWidth="827" pageHeight="1169" math="0" shadow="0">
      <root>
        <mxCell id="0" />
        <mxCell id="1" parent="0" />
        <mxCell id="Lm2S2iojFesmmErgIkI--7" style="edgeStyle=orthogonalEdgeStyle;rounded=0;orthogonalLoop=1;jettySize=auto;html=1;exitX=0.5;exitY=1;exitDx=0;exitDy=0;exitPerimeter=0;entryX=0.515;entryY=0.167;entryDx=0;entryDy=0;entryPerimeter=0;" edge="1" parent="1" source="Lm2S2iojFesmmErgIkI--1" target="Lm2S2iojFesmmErgIkI--3">
          <mxGeometry relative="1" as="geometry" />
        </mxCell>
        <mxCell id="Lm2S2iojFesmmErgIkI--1" value="Início" style="strokeWidth=2;html=1;shape=mxgraph.flowchart.terminator;whiteSpace=wrap;fillColor=#ffe6cc;strokeColor=#d79b00;" vertex="1" parent="1">
          <mxGeometry x="384" y="80" width="60" height="30" as="geometry" />
        </mxCell>
        <mxCell id="Lm2S2iojFesmmErgIkI--2" value="Fim" style="strokeWidth=2;html=1;shape=mxgraph.flowchart.terminator;whiteSpace=wrap;fillColor=#ffe6cc;strokeColor=#d79b00;" vertex="1" parent="1">
          <mxGeometry x="384.5" y="392" width="60" height="30" as="geometry" />
        </mxCell>
        <mxCell id="Lm2S2iojFesmmErgIkI--8" style="edgeStyle=orthogonalEdgeStyle;rounded=0;orthogonalLoop=1;jettySize=auto;html=1;exitX=0.5;exitY=1;exitDx=0;exitDy=0;entryX=0.5;entryY=0;entryDx=0;entryDy=0;" edge="1" parent="1" source="Lm2S2iojFesmmErgIkI--3" target="Lm2S2iojFesmmErgIkI--4">
          <mxGeometry relative="1" as="geometry" />
        </mxCell>
        <mxCell id="Lm2S2iojFesmmErgIkI--3" value="Entrada&lt;br&gt;scanf(&quot;%d&quot;,variavel);" style="html=1;strokeWidth=2;shape=manualInput;whiteSpace=wrap;rounded=1;size=26;arcSize=11;fillColor=#ffe6cc;strokeColor=#d79b00;" vertex="1" parent="1">
          <mxGeometry x="349" y="130" width="130" height="60" as="geometry" />
        </mxCell>
        <mxCell id="Lm2S2iojFesmmErgIkI--9" style="edgeStyle=orthogonalEdgeStyle;rounded=0;orthogonalLoop=1;jettySize=auto;html=1;exitX=0.5;exitY=1;exitDx=0;exitDy=0;entryX=0.5;entryY=0;entryDx=0;entryDy=0;entryPerimeter=0;" edge="1" parent="1" source="Lm2S2iojFesmmErgIkI--4" target="Lm2S2iojFesmmErgIkI--6">
          <mxGeometry relative="1" as="geometry" />
        </mxCell>
        <mxCell id="Lm2S2iojFesmmErgIkI--4" value="Processamento&lt;br&gt;x = x * x;" style="rounded=1;whiteSpace=wrap;html=1;absoluteArcSize=1;arcSize=14;strokeWidth=2;fillColor=#ffe6cc;strokeColor=#d79b00;" vertex="1" parent="1">
          <mxGeometry x="349" y="220" width="131" height="50" as="geometry" />
        </mxCell>
        <mxCell id="Lm2S2iojFesmmErgIkI--10" style="edgeStyle=orthogonalEdgeStyle;rounded=0;orthogonalLoop=1;jettySize=auto;html=1;exitX=0.5;exitY=1;exitDx=0;exitDy=0;exitPerimeter=0;entryX=0.5;entryY=0;entryDx=0;entryDy=0;entryPerimeter=0;" edge="1" parent="1" source="Lm2S2iojFesmmErgIkI--6" target="Lm2S2iojFesmmErgIkI--2">
          <mxGeometry relative="1" as="geometry" />
        </mxCell>
        <mxCell id="Lm2S2iojFesmmErgIkI--6" value="Saída&lt;br&gt;printf(&quot;X quadrado é %d&quot;,x);" style="strokeWidth=2;html=1;shape=mxgraph.flowchart.display;whiteSpace=wrap;fillColor=#ffe6cc;strokeColor=#d79b00;" vertex="1" parent="1">
          <mxGeometry x="344" y="296" width="140" height="70" as="geometry" />
        </mxCell>
        <mxCell id="Lm2S2iojFesmmErgIkI--11" value="&lt;b&gt;FLUXOGRAMA&lt;/b&gt;&lt;br&gt;Ciclo básico de um programa de computador" style="text;html=1;strokeColor=none;fillColor=none;align=center;verticalAlign=middle;whiteSpace=wrap;rounded=0;" vertex="1" parent="1">
          <mxGeometry x="344.5" y="10" width="140" height="60" as="geometry" />
        </mxCell>
      </root>
    </mxGraphModel>
  </diagram>
</mxfile>
